PathFileType	4	(X/Y/Z)	/Users/itak/Documents/Research/Walk-IL/dataset/trc/00364_00011.trc
DataRate	CameraRate	NumFrames	NumMarkers	Units	OrigDataRate	OrigDataStartFrame	OrigNumFrames
100.000000	100.000000	4	56	mm	100.000000	191	306
Frame#	Time	RPSI			LPSI			L3			STRN			T10			C7			CLAV			RBAK			LBAK			LSHO			LUPA			LAEL			LAOL			LWTS			LWPS			LFRA			LIFD			LHPS			LHTS			RSHO			RUPA			RAEL			RAOL			RWTS			RWPS			RFRA			RIFD			RHTS			RHPS			RBHD			LFHD			RFHD			LBHD			LHIP			RHIP			RASI			LASI			LKNE			LTHI			LANK			LTIP			LTOE			LMT1			LMT5			LHEE			RKNE			RTHI			RANK			RTIP			RTOE			RMT1			RMT5			RHEE			*53			*54			*55			
		X1	Y1	Z1	X2	Y2	Z2	X3	Y3	Z3	X4	Y4	Z4	X5	Y5	Z5	X6	Y6	Z6	X7	Y7	Z7	X8	Y8	Z8	X9	Y9	Z9	X10	Y10	Z10	X11	Y11	Z11	X12	Y12	Z12	X13	Y13	Z13	X14	Y14	Z14	X15	Y15	Z15	X16	Y16	Z16	X17	Y17	Z17	X18	Y18	Z18	X19	Y19	Z19	X20	Y20	Z20	X21	Y21	Z21	X22	Y22	Z22	X23	Y23	Z23	X24	Y24	Z24	X25	Y25	Z25	X26	Y26	Z26	X27	Y27	Z27	X28	Y28	Z28	X29	Y29	Z29	X30	Y30	Z30	X31	Y31	Z31	X32	Y32	Z32	X33	Y33	Z33	X34	Y34	Z34	X35	Y35	Z35	X36	Y36	Z36	X37	Y37	Z37	X38	Y38	Z38	X39	Y39	Z39	X40	Y40	Z40	X41	Y41	Z41	X42	Y42	Z42	X43	Y43	Z43	X44	Y44	Z44	X45	Y45	Z45	X46	Y46	Z46	X47	Y47	Z47	X48	Y48	Z48	X49	Y49	Z49	X50	Y50	Z50	X51	Y51	Z51	X52	Y52	Z52	X53	Y53	Z53	X54	Y54	Z54	X55	Y55	Z55	X56	Y56	Z56	

192	1.91	557.1696166992188	942.1072387695312	-255.9060516357422	429.6394958496094	938.6627807617188	-228.6057434082031	489.2428283691406	998.3755493164062	-237.1765747070312	447.5633239746094	1198.0869140625	-442.4463500976562	470.5584716796875	1113.254272460938	-212.1134185791016	443.0276184082031	1364.1201171875	-227.2935180664062	443.2959594726562	1319.618286132812	-388.484375	515.7998046875	1223.373046875	-196.6770629882812	342.2860412597656	1320.294067382812	-215.6534729003906	281.25732421875	1341.3759765625	-297.148681640625	222.9982299804688	1214.947509765625	-292.990234375	223.4033966064453	1015.887329101562	-341.8825073242188	282.1180114746094	995.6392211914062	-282.5641479492188	277.7819213867188	802.0693359375	-485.2391967773438	224.69140625	778.78857421875	-446.283447265625	220.8739624023438	915.3309936523438	-375.686279296875	290.0819702148438	645.1177978515625	-522.1495361328125	238.1118011474609	710.3869018554688	-456.5775756835938	267.4514770507812	727.2984008789062	-510.4560546875	604.4050903320312	1360.233520507812	-293.2438354492188	666.872802734375	1296.386474609375	-283.343017578125	704.6168212890625	1029.985107421875	-269.1181640625	613.1503295898438	1023.535705566406	-247.5709838867188	692.7836303710938	790.21826171875	-358.2829895019531	751.0736083984375	785.857421875	-309.0432434082031	721.460693359375	963.1507568359375	-285.3311462402344	708.1668701171875	616.7930908203125	-336.1099853515625	712.7029418945312	686.0397338867188	-363.7431335449219	753.61279296875	700.1640625	-309.3149108886719	521.7408447265625	1563.824584960938	-244.9879913330078	385.5816040039062	1608.611083984375	-396.2008361816406	487.0586853027344	1612.355712890625	-396.6201171875	380.4845886230469	1548.182250976562	-219.5193786621094	309.6571044921875	882.4732055664062	-292.174072265625	643.2701416015625	901.4088745117188	-363.1540832519531	577.8610229492188	938.3951416015625	-452.4523315429688	339.6405029296875	916.5946655273438	-422.2799987792969	298.5373840332031	435.4302062988281	-326.4215393066406	296.6204833984375	570.7127685546875	-331.1157531738281	342.8707580566406	184.8557434082031	18.26196479797363	310.4595947265625	289.8463439941406	-151.912109375	393.810302734375	25.39648818969727	-84.48370361328125	434.5819396972656	60.47514343261719	-37.27925109863281	321.531982421875	77.14519500732422	-41.62709426879883	411.8578796386719	209.6332702636719	35.63280868530273	618.196533203125	465.5320739746094	-539.719970703125	636.1476440429688	723.9779663085938	-493.1206665039062	619.0613403320312	39.36659622192383	-534.6140747070312	609.3064575195312	347.2706298828125	-567.5282592773438	529.1407470703125	42.18155288696289	-716.2299194335938	499.9269104003906	40.27238464355469	-653.4367065429688	616.256103515625	26.78185081481934	-635.3883056640625	579.7219848632812	44.25532913208008	-477.7654113769531	nan	nan	nan	nan	nan	nan	nan	nan	nan	
193	1.92	561.0408935546875	944.3282470703125	-264.5052795410156	433.4632263183594	940.2533569335938	-236.1582641601562	493.0639038085938	1000.134216308594	-245.9365386962891	449.1179504394531	1200.10693359375	-450.3834228515625	474.3780822753906	1115.052124023438	-220.0135040283203	446.0980834960938	1365.846313476562	-234.8739776611328	444.9852905273438	1321.581298828125	-396.2374267578125	519.5906372070312	1225.181884765625	-205.4242553710938	345.6131591796875	1321.721801757812	-222.4824676513672	283.7798767089844	1342.864990234375	-303.3528137207031	225.9379577636719	1216.24365234375	-298.7804260253906	226.4925079345703	1017.067199707031	-346.5846862792969	286.7244567871094	997.373046875	-288.6804809570312	276.9373779296875	799.6546630859375	-486.68798828125	224.6896667480469	777.9337158203125	-445.7240600585938	223.5701599121094	916.0988159179688	-378.6363830566406	286.8654174804688	641.5491333007812	-519.64453125	237.4077301025391	709.1264038085938	-454.5041198730469	265.3359375	724.27880859375	-509.6256408691406	606.8541259765625	1362.514892578125	-302.4500732421875	669.7598876953125	1298.896362304688	-293.6447448730469	709.0975952148438	1032.461547851562	-282.6382751464844	618.1676635742188	1025.48291015625	-259.0415344238281	695.6569213867188	793.8331909179688	-374.7811279296875	755.0687866210938	788.8574829101562	-326.9690551757812	725.6676635742188	965.7599487304688	-300.0577087402344	711.9819946289062	620.2008056640625	-355.5962219238281	715.6115112304688	689.6815795898438	-382.2097778320312	757.8367919921875	703.272705078125	-328.6046752929688	524.3469848632812	1565.451416015625	-252.4595489501953	387.5382080078125	1610.619140625	-402.9692077636719	489.0050354003906	1614.264892578125	-403.8553771972656	383.2295532226562	1549.924194335938	-226.3642730712891	313.1978454589844	883.91455078125	-299.0363464355469	645.87744140625	902.8948364257812	-372.450927734375	579.9722290039062	939.873779296875	-461.4530944824219	342.1498718261719	918.52685546875	-429.14306640625	299.0895385742188	436.6571350097656	-342.6327819824219	298.0766906738281	571.6600341796875	-344.6759033203125	347.0201110839844	193.1788024902344	5.406202793121338	312.3957824707031	293.7062377929688	-166.1134185791016	393.8196105957031	23.73309326171875	-90.90001678466797	436.1519775390625	65.00004577636719	-47.02837371826172	323.6492309570312	82.61982727050781	-49.12891387939453	416.5347290039062	217.3938140869141	21.00192070007324	619.1358032226562	465.2875061035156	-543.7269287109375	637.49609375	724.39453125	-500.8860778808594	618.9620971679688	39.75444030761719	-534.8585205078125	609.8434448242188	346.6884460449219	-570.8088989257812	528.737060546875	41.21257400512695	-716.5199584960938	499.603759765625	39.80172348022461	-653.6355590820312	616.1166381835938	26.84181976318359	-635.477783203125	579.653076171875	44.56183242797852	-477.9611206054688	nan	nan	nan	nan	nan	nan	nan	nan	nan	
194	1.93	564.9386596679688	946.3729248046875	-273.0008850097656	437.4497680664062	941.8428344726562	-243.2976989746094	496.9998474121094	1002.021362304688	-254.3534698486328	450.5076293945312	1202.073974609375	-458.0929870605469	478.2001647949219	1116.930419921875	-227.7624206542969	449.1028747558594	1367.623168945312	-242.3597412109375	446.5453796386719	1323.5380859375	-403.845703125	523.35205078125	1227.072631835938	-213.9859771728516	348.9132995605469	1323.228149414062	-229.1292114257812	286.2442016601562	1344.374755859375	-309.3480834960938	228.801025390625	1217.564453125	-304.2610168457031	229.3127136230469	1018.273193359375	-350.9724426269531	290.9712524414062	999.0657958984375	-294.5552368164062	275.9582214355469	797.6229248046875	-487.9871215820312	224.6664428710938	777.3814086914062	-445.0873107910156	225.9928588867188	916.98193359375	-381.3682861328125	283.8341979980469	638.5460815429688	-517.0951538085938	236.71484375	708.24853515625	-452.4286804199219	263.2171020507812	721.7240600585938	-508.693603515625	609.2046508789062	1364.806274414062	-311.5722351074219	672.5210571289062	1301.428833007812	-303.7957153320312	713.537109375	1035.044799804688	-296.0148620605469	623.1591186523438	1027.4296875	-270.44140625	698.5114135742188	797.7100830078125	-391.3684692382812	758.9692993164062	792.0489501953125	-344.9721069335938	729.8242797851562	968.4656982421875	-314.6401977539062	715.7711181640625	623.8386840820312	-375.5992126464844	718.4759521484375	693.6046752929688	-400.9702758789062	761.96435546875	706.5874633789062	-348.1648864746094	526.86328125	1567.082763671875	-259.7942199707031	389.37939453125	1612.691040039062	-409.5464782714844	490.8201599121094	1616.232055664062	-410.9206848144531	385.8865661621094	1551.659301757812	-233.0483245849609	316.7465209960938	885.49072265625	-305.4059753417969	648.5111694335938	904.2250366210938	-381.7536926269531	581.9259643554688	941.1136474609375	-470.2555847167969	344.4867858886719	920.5242919921875	-435.5862121582031	299.608154296875	438.1808166503906	-358.7908020019531	299.4364013671875	572.842041015625	-358.1224975585938	351.0737915039062	200.7106475830078	-8.037881851196289	314.259765625	297.3732604980469	-180.6653289794922	393.9385681152344	22.73017501831055	-98.90493774414062	437.6982116699219	69.27904510498047	-58.14768981933594	325.784423828125	88.04843139648438	-58.09146118164062	421.070068359375	224.2774810791016	5.954002380371094	619.5728759765625	464.92529296875	-547.3464965820312	638.584716796875	724.4108276367188	-508.2008666992188	618.7957153320312	40.20687866210938	-535.0730590820312	610.0667114257812	346.1029357910156	-573.7828369140625	528.3134155273438	40.49797439575195	-716.6964721679688	499.2148132324219	39.3630485534668	-653.7547607421875	615.8908081054688	26.99845123291016	-635.5164794921875	579.4844360351562	44.82607269287109	-478.1156616210938	nan	nan	nan	nan	nan	nan	nan	nan	nan	
195	1.94	568.7588500976562	948.22998046875	-281.3854370117188	441.5120849609375	943.4142456054688	-250.0842742919922	500.9983520507812	1003.993774414062	-262.4294128417969	451.7334899902344	1203.985717773438	-465.5780029296875	482.0339660644531	1118.859619140625	-235.4619598388672	452.0660095214844	1369.438842773438	-249.7503204345703	447.9877624511719	1325.477172851562	-411.3051147460938	527.1104736328125	1229.045166015625	-222.3534698486328	352.211181640625	1324.802612304688	-235.5910339355469	288.673828125	1345.902099609375	-315.1315307617188	231.5855560302734	1218.9267578125	-309.4317016601562	231.8868713378906	1019.521667480469	-355.051025390625	294.8412475585938	1000.731140136719	-300.1346130371094	274.89306640625	795.9805908203125	-489.1609497070312	224.6317138671875	777.1072998046875	-444.4407348632812	228.1268615722656	917.9783935546875	-383.9009704589844	281.0599975585938	636.1131591796875	-514.58154296875	236.0551300048828	707.7299194335938	-450.4229431152344	261.1622314453125	719.6415405273438	-507.7195129394531	611.4658813476562	1367.109008789062	-320.6315307617188	675.1718139648438	1303.981689453125	-313.8280334472656	717.9246215820312	1037.735107421875	-309.2458190917969	628.111328125	1029.382446289062	-281.7773742675781	701.3448486328125	801.8582763671875	-408.0091552734375	762.753662109375	795.4354858398438	-362.9909362792969	733.92236328125	971.2731323242188	-329.0617980957031	719.50927734375	627.7459106445312	-396.0729675292969	721.2990112304688	697.8488159179688	-419.9862670898438	765.9656982421875	710.1168212890625	-367.9285583496094	529.2935791015625	1568.7041015625	-266.9961853027344	391.1026000976562	1614.803344726562	-415.9346008300781	492.5073852539062	1618.243408203125	-417.8150634765625	388.4579467773438	1553.3544921875	-239.5764312744141	320.2543640136719	887.1629638671875	-311.3418579101562	651.1551513671875	905.4606323242188	-391.0100402832031	583.7386474609375	942.16845703125	-478.8270263671875	346.6585693359375	922.5614624023438	-441.6491394042969	300.0971984863281	440.0188293457031	-374.7449951171875	300.6927185058594	574.268310546875	-371.3441467285156	354.980224609375	207.1928405761719	-21.96426963806152	316.0700988769531	300.7902526855469	-195.4530792236328	394.298583984375	22.61163520812988	-108.8975067138672	439.3113403320312	73.20040893554688	-70.74058532714844	327.9752502441406	93.16202545166016	-68.6708984375	425.4105834960938	230.0973663330078	-9.369166374206543	619.6577758789062	464.5312194824219	-550.6736450195312	639.440673828125	724.171875	-515.1289672851562	618.5833740234375	40.67684555053711	-535.2584838867188	610.0762939453125	345.5422973632812	-576.4838256835938	527.9031372070312	39.97242736816406	-716.8060302734375	498.8005676269531	38.96236419677734	-653.8218383789062	615.6161499023438	27.21552276611328	-635.51953125	579.2384033203125	45.06010818481445	-478.2434387207031	nan	nan	nan	nan	nan	nan	nan	nan	nan	
